# xmcd
#
# Track frame offsets: 
#        150
#        11874
#        24717
#        36866
#        49453
#        61800
#        75098
#        85652
#        97192
#        112277
#        125846
#        140088
#        151542
#        167501
#        177989
#        191108
#        203891
#        218171
#        230273
#        240916
#
# Disc length: 3382 seconds
#
# Revision: 1
# Processed by: cddbd v1.5.2PL0 Copyright (c) Steve Scherf et al.
# Submitted via: ExactAudioCopy v0.99pb5
#
DISCID=110d3414
DTITLE=Ray Charles - The Best Of
DYEAR=2007
DGENRE=R&B
TTITLE0=Hallelujah I Love Her So
TTITLE1=I've Got A Woman
TTITLE2=Mess Around
TTITLE3=Heartbreaker
TTITLE4=It Should've Been Me
TTITLE5=Don't You Know
TTITLE6=Blackjack
TTITLE7=This Litte Girl Of Mine
TTITLE8=Drown In My Own Tears
TTITLE9=Baby Let Me Hold Your Hand
TTITLE10=Kissa Me Baby
TTITLE11=Back Home (Instrumental)
TTITLE12=Let Me Hear You Call My Name
TTITLE13=Hey Now
TTITLE14=Baby Won't You Please Come Home
TTITLE15=Why Did You Go?
TTITLE16=Walkin' And Talkin'
TTITLE17=I'm Glad For Your Sake
TTITLE18=The Ego Song
TTITLE19=The Snow Is Falling
EXTD=
EXTT0=
EXTT1=
EXTT2=
EXTT3=
EXTT4=
EXTT5=
EXTT6=
EXTT7=
EXTT8=
EXTT9=
EXTT10=
EXTT11=
EXTT12=
EXTT13=
EXTT14=
EXTT15=
EXTT16=
EXTT17=
EXTT18=
EXTT19=
PLAYORDER=
